<svg xmlns="http://www.w3.org/2000/svg" width="54" height="54" fill="none" viewBox="0 0 54 54">
    <circle cx="27" cy="27" r="27" fill="#FF7E67" fill-opacity=".2"/>
    <path fill="#FF7E67" fill-opacity=".5" d="M18.065 17.332h24.65v14.671h-24.65v-14.67z"/>
    <path fill="#FF7E67" d="M38.886 19.164h-16.99c0 1.01-.82 1.828-1.829 1.828v7.352c1.01 0 1.828.818 1.828 1.827h16.99c0-1.01.82-1.827 1.829-1.827v-7.352a1.828 1.828 0 0 1-1.828-1.828z"/>
    <path fill="#8D2A2A" d="M30.39 28.3c1.564 0 2.831-1.627 2.831-3.632 0-2.006-1.267-3.633-2.83-3.633-1.564 0-2.831 1.627-2.831 3.633 0 2.006 1.267 3.632 2.83 3.632zM36.897 23.38a1.287 1.287 0 1 0 0 2.575 1.287 1.287 0 0 0 0-2.574zM23.883 23.38a1.287 1.287 0 1 0 0 2.575 1.287 1.287 0 0 0 0-2.574z"/>
    <path fill="#FF7E67" fill-opacity=".5" d="M12.065 23.332h24.65v14.671h-24.65v-14.67z"/>
    <path fill="#FF7E67" d="M32.886 25.164h-16.99c0 1.01-.82 1.828-1.829 1.828v7.352c1.01 0 1.828.818 1.828 1.827h16.99c0-1.01.82-1.827 1.829-1.827v-7.352a1.828 1.828 0 0 1-1.828-1.828z"/>
    <path fill="#8D2A2A" d="M24.39 34.3c1.564 0 2.831-1.627 2.831-3.632 0-2.006-1.267-3.633-2.83-3.633-1.564 0-2.831 1.627-2.831 3.633 0 2.005 1.267 3.632 2.83 3.632zM30.897 29.38a1.287 1.287 0 1 0 0 2.575 1.287 1.287 0 0 0 0-2.574zM17.883 29.38a1.287 1.287 0 1 0 0 2.575 1.287 1.287 0 0 0 0-2.574z"/>
</svg>
